<svg width="80" height="90" viewBox="0 0 472 80" fill="none" xmlns="http://www.w3.org/2000/svg">
<path d="M123.348 15.1441C134.415 15.1441 141.368 21.6709 141.368 30.6098C141.368 40.0453 134.415 46.2174 123.348 46.2174H113.132V62.1087C113.132 63.7404 111.784 65.1592 110.153 65.1592C108.45 65.1592 107.102 63.7404 107.102 62.1087V18.4075C107.102 16.4921 108.45 15.1441 110.365 15.1441H123.348ZM123.206 40.9675C130.726 40.9675 135.479 37.7041 135.479 30.6098C135.479 23.9411 130.726 20.394 123.206 20.394H113.132V40.9675H123.206Z" fill="black"/>
<path d="M154.005 62.1796C154.005 63.7404 152.657 65.1592 151.096 65.1592C149.464 65.1592 148.116 63.7404 148.116 62.1796V17.0596C148.116 15.4989 149.464 14.1509 151.096 14.1509C152.657 14.1509 154.005 15.4989 154.005 17.0596V62.1796Z" fill="black"/>
<path d="M178.56 27.4883C183.951 27.4883 188.988 30.1842 191.188 34.9374V30.6808C191.188 29.0491 192.536 27.7011 194.096 27.7011C195.799 27.7011 197.076 29.0491 197.076 30.6808V62.2506C197.076 63.8113 195.728 65.2302 194.096 65.2302C192.536 65.2302 191.188 63.8113 191.188 62.2506V57.1426C189.769 61.4702 184.874 65.3011 178.56 65.3011C170.685 65.3011 161.108 59.1291 161.108 46.3592C161.108 33.7313 170.685 27.4883 178.56 27.4883ZM179.411 60.1223C184.945 60.1223 191.471 55.8657 191.471 46.3592C191.471 36.64 184.945 32.5962 179.411 32.5962C173.665 32.5962 166.996 37.0657 166.996 46.3592C166.996 55.7238 173.665 60.1223 179.411 60.1223Z" fill="black"/>
<path d="M234.297 27.7011C235.858 27.7011 237.064 28.9781 237.064 30.397C237.064 30.9645 236.922 31.3192 236.78 31.7449L217.341 76.6521C216.774 78 215.71 78.6385 214.575 78.6385C213.014 78.6385 211.95 77.3615 211.95 75.9426C211.95 75.3751 212.092 75.0204 212.234 74.5947L216.987 63.5275L203.082 31.7449C202.94 31.3192 202.798 30.9645 202.798 30.397C202.798 28.9781 204.004 27.7011 205.565 27.7011C206.7 27.7011 207.764 28.3396 208.332 29.6875L219.895 56.7879L231.53 29.6875C232.098 28.3396 233.162 27.7011 234.297 27.7011Z" fill="black"/>
<path d="M273.631 27.7011C275.333 27.7011 276.61 29.0491 276.61 30.6808V64.0951C276.61 75.8008 266.465 79.3479 258.945 79.3479C254.263 79.3479 250.716 78 249.013 77.0777C247.949 76.5811 247.24 75.6589 247.24 74.5947C247.24 73.2468 248.304 72.1826 249.652 72.1826C250.077 72.1826 250.645 72.3245 251.212 72.5374C252.915 73.3887 255.824 74.24 259.016 74.24C265.614 74.24 270.722 70.9057 270.722 64.0951V57.1426C269.303 61.4702 264.408 65.3011 258.094 65.3011C250.219 65.3011 240.642 59.1291 240.642 46.3592C240.642 33.7313 250.219 27.4883 258.094 27.4883C263.486 27.4883 268.523 30.1842 270.722 34.9374V30.6808C270.722 29.0491 272.07 27.7011 273.631 27.7011ZM258.945 60.1223C264.479 60.1223 271.006 55.8657 271.006 46.3592C271.006 36.64 264.479 32.5962 258.945 32.5962C253.199 32.5962 246.53 37.0657 246.53 46.3592C246.53 55.7238 253.199 60.1223 258.945 60.1223Z" fill="black"/>
<path d="M304.361 27.5592C306.418 27.5592 307.553 28.7653 307.553 30.326C307.553 32.0287 306.205 33.1638 303.722 33.1638C296.983 33.1638 292.513 38.4845 291.804 42.883V62.1796C291.804 63.8113 290.456 65.1592 288.895 65.1592C287.263 65.1592 285.915 63.8113 285.915 62.1796V30.6808C285.915 29.0491 287.263 27.7011 288.895 27.7011C290.456 27.7011 291.804 29.0491 291.804 30.6808V36.4272C292.229 34.0151 296.77 27.5592 304.361 27.5592Z" fill="black"/>
<path d="M328.784 27.4883C337.013 27.4883 347.3 33.8023 347.3 46.4302C347.3 59.1291 337.013 65.3011 328.784 65.3011C320.625 65.3011 310.338 59.1291 310.338 46.4302C310.338 33.8023 320.625 27.4883 328.784 27.4883ZM328.784 32.6672C322.895 32.6672 316.156 37.2785 316.156 46.4302C316.156 55.5109 322.895 60.1223 328.784 60.1223C334.743 60.1223 341.411 55.5109 341.411 46.4302C341.411 37.2785 334.743 32.6672 328.784 32.6672Z" fill="black"/>
<path d="M368.199 65.3011C361.53 65.3011 354.365 61.2574 354.365 49.4808V30.6808C354.365 29.12 355.713 27.7011 357.344 27.7011C358.976 27.7011 360.253 29.12 360.253 30.6808V49.4808C360.253 57.2136 364.935 60.1223 369.901 60.1223C377.138 60.1223 380.827 54.0211 381.465 49.9774V30.6808C381.465 29.12 382.813 27.7011 384.374 27.7011C386.005 27.7011 387.353 29.12 387.353 30.6808V62.1796C387.353 63.8113 386.005 65.1592 384.374 65.1592C382.813 65.1592 381.465 63.8113 381.465 62.1796V56.4332C381.039 58.8453 376.641 65.3011 368.199 65.3011Z" fill="black"/>
<path d="M415.019 27.5592C421.687 27.5592 428.853 31.603 428.853 43.3796V62.1796C428.853 63.7404 427.505 65.1592 425.873 65.1592C424.241 65.1592 422.964 63.7404 422.964 62.1796V43.3796C422.964 35.6468 418.282 32.7381 413.316 32.7381C406.08 32.7381 402.391 38.8392 401.752 42.883V62.1796C401.752 63.7404 400.404 65.1592 398.843 65.1592C397.212 65.1592 395.864 63.7404 395.864 62.1796V30.6808C395.864 29.0491 397.212 27.7011 398.843 27.7011C400.404 27.7011 401.752 29.0491 401.752 30.6808V36.4272C402.178 34.0151 406.576 27.5592 415.019 27.5592Z" fill="black"/>
<path d="M468.933 14.1509C470.564 14.1509 471.912 15.4989 471.912 17.1306V62.2506C471.912 63.8113 470.564 65.2302 468.933 65.2302C467.372 65.2302 466.024 63.8113 466.024 62.2506V57.1426C464.605 61.4702 459.71 65.3011 453.396 65.3011C445.521 65.3011 435.944 59.1291 435.944 46.3592C435.944 33.7313 445.521 27.4883 453.396 27.4883C458.717 27.4883 463.683 30.1132 465.953 34.7955V17.1306C465.953 15.4989 467.301 14.1509 468.933 14.1509ZM454.247 60.1223C459.781 60.1223 466.308 55.8657 466.308 46.3592C466.308 36.64 459.781 32.5962 454.247 32.5962C448.501 32.5962 441.832 37.0657 441.832 46.3592C441.832 55.7238 448.501 60.1223 454.247 60.1223Z" fill="black"/>
<path d="M24.3952 16.8542C26.114 13.7188 30.618 13.7188 32.3368 16.8542L55.4097 58.9435C57.064 61.9612 54.8804 65.6485 51.4389 65.6485H5.29302C1.85156 65.6485 -0.332077 61.9612 1.32223 58.9435L24.3952 16.8542Z" fill="#6BC7FF"/>
<path d="M34.1984 34.446C35.9128 31.291 40.4417 31.291 42.1561 34.446L55.4571 58.9239C57.0967 61.9413 54.9124 65.6143 51.4783 65.6143H24.8762C21.4422 65.6143 19.2578 61.9413 20.8974 58.9239L34.1984 34.446Z" fill="#667EFF"/>
<path d="M57.8 39.9874C57.8 37.4865 59.8274 35.4591 62.3283 35.4591H76.668C79.1689 35.4591 81.1963 37.4865 81.1963 39.9874V61.1195C81.1963 63.6204 79.1689 65.6478 76.668 65.6478H62.3283C59.8274 65.6478 57.8 63.6204 57.8 61.1195V39.9874Z" fill="#F775AF"/>
<ellipse cx="69.1208" cy="27.1572" rx="13.5849" ry="13.5849" fill="#FFD944"/>
<path d="M79.217 36.2455C76.7303 39.0049 73.1284 40.7413 69.1204 40.7413C65.2813 40.7413 61.8135 39.1494 59.343 36.5874C60.1397 35.8887 61.1849 35.4583 62.328 35.4583H76.6676C77.6154 35.4583 78.4895 35.7472 79.217 36.2455Z" fill="#F7642F"/>
</svg>
